<svg width="22" height="23" viewBox="0 0 22 23" fill="none" xmlns="http://www.w3.org/2000/svg">
<g clip-path="url(#clip0_3_1357)">
<path d="M7.21875 14.1559C9.68677 14.1559 11.6875 12.1552 11.6875 9.68716C11.6875 7.21914 9.68677 5.21841 7.21875 5.21841C4.75073 5.21841 2.75 7.21914 2.75 9.68716C2.75 12.1552 4.75073 14.1559 7.21875 14.1559Z" stroke="#757575" stroke-width="1.5" stroke-linecap="round" stroke-linejoin="round"/>
<path d="M0.879141 17.5934C1.56586 16.5376 2.50542 15.6699 3.61252 15.0693C4.71963 14.4687 5.95922 14.1541 7.21875 14.1541C8.47828 14.1541 9.71787 14.4687 10.825 15.0693C11.9321 15.6699 12.8716 16.5376 13.5584 17.5934" stroke="#757575" stroke-width="1.5" stroke-linecap="round" stroke-linejoin="round"/>
<path d="M14.7812 14.1559C16.0407 14.1552 17.2804 14.4693 18.3876 15.0696C19.4948 15.6699 20.4343 16.5375 21.1209 17.5934" stroke="#757575" stroke-width="1.5" stroke-linecap="round" stroke-linejoin="round"/>
<path d="M13.1218 5.53638C13.7331 5.29257 14.3907 5.18679 15.0476 5.2266C15.7045 5.2664 16.3445 5.45081 16.9219 5.76664C17.4993 6.08247 17.9998 6.52193 18.3876 7.05362C18.7754 7.58531 19.0411 8.1961 19.1655 8.84234C19.2899 9.48859 19.27 10.1543 19.1073 10.792C18.9446 11.4297 18.6431 12.0236 18.2242 12.5312C17.8054 13.0388 17.2796 13.4477 16.6844 13.7285C16.0892 14.0094 15.4394 14.1553 14.7812 14.1559" stroke="#757575" stroke-width="1.5" stroke-linecap="round" stroke-linejoin="round"/>
</g>
<defs>
<clipPath id="clip0_3_1357">
<rect width="22" height="22" fill="white" transform="translate(0 0.405914)"/>
</clipPath>
</defs>
</svg>
