<svg width="22" height="23" viewBox="0 0 22 23" fill="none" xmlns="http://www.w3.org/2000/svg">
<g clip-path="url(#clip0_3_1372)">
<path d="M5.5 18.9684C5.31766 18.9684 5.1428 18.896 5.01386 18.767C4.88493 18.6381 4.8125 18.4632 4.8125 18.2809V14.6122C4.44574 14.7858 4.04106 14.8637 3.63609 14.8389C3.23111 14.8141 2.839 14.6872 2.49619 14.4702C2.15339 14.2531 1.87104 13.9529 1.67538 13.5975C1.47973 13.242 1.37714 12.8429 1.37714 12.4372C1.37714 12.0314 1.47973 11.6323 1.67538 11.2768C1.87104 10.9214 2.15339 10.6212 2.49619 10.4041C2.839 10.1871 3.23111 10.0603 3.63609 10.0354C4.04106 10.0106 4.44574 10.0886 4.8125 10.2621V6.59341C4.8125 6.41107 4.88493 6.2362 5.01386 6.10727C5.1428 5.97834 5.31766 5.90591 5.5 5.90591H9.51242C9.33871 5.53915 9.26057 5.13441 9.28529 4.72934C9.31 4.32427 9.43676 3.93204 9.65378 3.58912C9.8708 3.2462 10.171 2.96373 10.5265 2.768C10.882 2.57227 11.2812 2.46964 11.6871 2.46964C12.0929 2.46964 12.4921 2.57227 12.8476 2.768C13.2031 2.96373 13.5033 3.2462 13.7204 3.58912C13.9374 3.93204 14.0641 4.32427 14.0889 4.72934C14.1136 5.13441 14.0354 5.53915 13.8617 5.90591H17.875C18.0573 5.90591 18.2322 5.97834 18.3611 6.10727C18.4901 6.2362 18.5625 6.41107 18.5625 6.59341V10.2621C18.1957 10.0886 17.7911 10.0106 17.3861 10.0354C16.9811 10.0603 16.589 10.1871 16.2462 10.4041C15.9034 10.6212 15.621 10.9214 15.4254 11.2768C15.2297 11.6323 15.1271 12.0314 15.1271 12.4372C15.1271 12.8429 15.2297 13.242 15.4254 13.5975C15.621 13.9529 15.9034 14.2531 16.2462 14.4702C16.589 14.6872 16.9811 14.8141 17.3861 14.8389C17.7911 14.8637 18.1957 14.7858 18.5625 14.6122V18.2809C18.5625 18.4632 18.4901 18.6381 18.3611 18.767C18.2322 18.896 18.0573 18.9684 17.875 18.9684H5.5Z" stroke="#757575" stroke-width="1.5" stroke-linecap="round" stroke-linejoin="round"/>
</g>
<defs>
<clipPath id="clip0_3_1372">
<rect width="22" height="22" fill="white" transform="translate(0 0.405914)"/>
</clipPath>
</defs>
</svg>
