<svg width="22" height="23" viewBox="0 0 22 23" fill="none" xmlns="http://www.w3.org/2000/svg">
<path d="M14.4375 19.6559H4.8125C4.63016 19.6559 4.4553 19.5835 4.32636 19.4546C4.19743 19.3256 4.125 19.1508 4.125 18.9684V6.59341C4.125 6.41108 4.19743 6.23621 4.32636 6.10728C4.4553 5.97835 4.63016 5.90591 4.8125 5.90591H11.6875L15.125 9.34341V18.9684C15.125 19.1508 15.0526 19.3256 14.9236 19.4546C14.7947 19.5835 14.6198 19.6559 14.4375 19.6559Z" stroke="#757575" stroke-width="1.5" stroke-linecap="round" stroke-linejoin="round"/>
<path d="M6.875 5.90591V3.84341C6.875 3.66108 6.94743 3.48621 7.07636 3.35728C7.2053 3.22835 7.38016 3.15591 7.5625 3.15591H14.4375L17.875 6.59341V16.2184C17.875 16.4008 17.8026 16.5756 17.6736 16.7046C17.5447 16.8335 17.3698 16.9059 17.1875 16.9059H15.125" stroke="#757575" stroke-width="1.5" stroke-linecap="round" stroke-linejoin="round"/>
<path d="M7.5625 13.4684H11.6875" stroke="#757575" stroke-width="1.5" stroke-linecap="round" stroke-linejoin="round"/>
<path d="M7.5625 16.2184H11.6875" stroke="#757575" stroke-width="1.5" stroke-linecap="round" stroke-linejoin="round"/>
</svg>
