<svg width="22" height="23" viewBox="0 0 22 23" fill="none" xmlns="http://www.w3.org/2000/svg">
<path d="M18.5625 4.53091H3.4375C3.0578 4.53091 2.75 4.83872 2.75 5.21841V17.5934C2.75 17.9731 3.0578 18.2809 3.4375 18.2809H18.5625C18.9422 18.2809 19.25 17.9731 19.25 17.5934V5.21841C19.25 4.83872 18.9422 4.53091 18.5625 4.53091Z" stroke="#757575" stroke-width="1.5" stroke-linecap="round" stroke-linejoin="round"/>
<path d="M2.75 14.8433L7.07266 10.5207C7.13663 10.4557 7.21288 10.4041 7.29698 10.3689C7.38107 10.3337 7.47133 10.3156 7.5625 10.3156C7.65367 10.3156 7.74393 10.3337 7.82802 10.3689C7.91212 10.4041 7.98837 10.4557 8.05234 10.5207L11.8852 14.3535C11.9491 14.4185 12.0254 14.47 12.1095 14.5053C12.1936 14.5405 12.2838 14.5586 12.375 14.5586C12.4662 14.5586 12.5564 14.5405 12.6405 14.5053C12.7246 14.47 12.8009 14.4185 12.8648 14.3535L14.6352 12.5832C14.6991 12.5182 14.7754 12.4666 14.8595 12.4314C14.9436 12.3962 15.0338 12.3781 15.125 12.3781C15.2162 12.3781 15.3064 12.3962 15.3905 12.4314C15.4746 12.4666 15.5509 12.5182 15.6148 12.5832L19.25 16.2183" stroke="#757575" stroke-width="1.5" stroke-linecap="round" stroke-linejoin="round"/>
<path d="M13.4062 10.0309C13.9758 10.0309 14.4375 9.56921 14.4375 8.99966C14.4375 8.43012 13.9758 7.96841 13.4062 7.96841C12.8367 7.96841 12.375 8.43012 12.375 8.99966C12.375 9.56921 12.8367 10.0309 13.4062 10.0309Z" fill="#757575"/>
</svg>
