<svg width="22" height="23" viewBox="0 0 22 23" fill="none" xmlns="http://www.w3.org/2000/svg">
<g clip-path="url(#clip0_3_1378)">
<path d="M18.639 18.2809H3.38422C3.21615 18.2805 3.0551 18.2135 2.93626 18.0947C2.81742 17.9758 2.75045 17.8148 2.75 17.6467V7.28091H18.5625C18.7448 7.28091 18.9197 7.35335 19.0486 7.48228C19.1776 7.61121 19.25 7.78608 19.25 7.96841V17.6699C19.25 17.832 19.1856 17.9874 19.071 18.102C18.9564 18.2165 18.801 18.2809 18.639 18.2809Z" stroke="#757575" stroke-width="1.5" stroke-linecap="round" stroke-linejoin="round"/>
<path d="M2.75 7.28091V5.21841C2.75 5.03608 2.82243 4.86121 2.95136 4.73228C3.0803 4.60335 3.25516 4.53091 3.4375 4.53091H7.96555C8.14764 4.531 8.32226 4.60332 8.45109 4.73201L11 7.28091" stroke="#757575" stroke-width="1.5" stroke-linecap="round" stroke-linejoin="round"/>
</g>
<defs>
<clipPath id="clip0_3_1378">
<rect width="22" height="22" fill="white" transform="translate(0 0.405914)"/>
</clipPath>
</defs>
</svg>
