<svg width="70" height="61" viewBox="0 0 70 61" fill="none" xmlns="http://www.w3.org/2000/svg">
<g clip-path="url(#clip0_18893_31817)">
<path d="M28.5083 41.6705C28.5337 41.5057 28.6021 41.3505 28.707 41.2203C28.8118 41.0901 28.9492 40.9899 29.1054 40.9292C31.8089 39.894 35.5224 36.5568 36.9815 34.1222C37.1739 36.865 37.7487 39.2219 38.7868 40.2547C39.7801 41.2431 40.7982 41.282 42.0761 41.282C42.8127 41.282 43.9733 41.0876 44.272 40.7905C44.4055 40.6581 44.5078 40.4976 44.571 40.321C44.6342 40.1441 44.6568 39.9554 44.6374 39.7688C44.6374 39.1802 44.4421 36.6985 44.4421 35.9351C44.4421 32.5758 45.3237 27.7397 45.6723 25.8935C45.7003 25.7409 45.8511 25.6937 46.0101 25.6937C47.0274 25.7526 47.9823 26.2014 48.6744 26.9457C51.3585 30.13 53.027 36.2015 54.8376 38.0034C55.6216 38.7807 56.5115 39.3914 58.7659 39.3914C63.9664 39.3914 66.6842 36.457 67.6688 35.4769C68.7849 34.3664 69.7139 32.9506 69.7139 31.779C69.7139 29.6275 68.3189 29.5331 67.9535 29.5331C66.7147 29.5331 66.0814 33.0367 63.177 33.0367C59.8288 33.0367 60.3396 25.9102 55.6048 24.2556C55.3258 24.1584 55.2282 23.7559 55.7362 23.7559C57.6136 23.7559 67.5823 19.6444 67.5823 10.4302C67.5823 4.56972 61.8071 0.0861778 54.3659 0.0861778C46.3673 0.0861778 35.8711 3.77572 35.8711 7.95665C35.8711 9.4169 37.1908 11.1853 39.4481 11.1853C40.2848 11.1853 40.5472 11.1631 40.2209 11.8016C39.8943 12.4402 37.9134 17.1069 37.1797 25.5326C37.1628 25.5921 37.1571 25.6543 37.1628 25.7159V25.7464L37.1294 26.1434C36.7055 29.3388 31.8284 35.1327 29.2616 36.1737C29.1847 36.2051 29.1009 36.2158 29.0184 36.2058C28.936 36.1955 28.8575 36.1644 28.7906 36.1152C28.7237 36.0663 28.6706 36.0011 28.6363 35.9258C28.602 35.8505 28.5877 35.7674 28.5948 35.685C29.4318 26.868 36.2087 14.675 36.2087 12.9204C36.2087 11.5907 34.6017 8.79784 30.4585 8.79784C24.3372 8.80337 0 13.1342 0 22.5899C0 24.3333 1.17459 25.6742 1.61821 25.6742C2.11761 25.6742 2.1511 25.4827 3.11365 24.5027C6.09337 21.4628 15.2809 18.2063 23.3412 18.2063C23.3996 18.2064 23.4571 18.2201 23.5092 18.2462C23.5613 18.2724 23.6065 18.3104 23.6412 18.357C23.6759 18.4037 23.6992 18.4579 23.7091 18.5151C23.719 18.5723 23.7153 18.631 23.6983 18.6866C22.6577 21.7765 20.1355 29.758 19.4743 38.12C19.466 38.2267 19.4224 38.3276 19.3502 38.4072C19.2779 38.4864 19.1813 38.5399 19.0753 38.5584C16.4192 39.0332 1.74375 43.0004 1.74375 50.4962C1.74375 55.1572 5.13642 57.2476 9.55579 57.2476C22.786 57.2587 27.9001 45.6155 28.5083 41.6705ZM46.9223 20.5716C47.0339 20.1857 47.1204 19.7943 47.2683 19.4223C48.4626 16.3907 50.474 12.0404 50.474 10.7439C50.474 9.52242 50.1143 9.35583 49.8073 9.01159C49.7761 8.97745 49.7549 8.9354 49.7463 8.89009C49.7377 8.84475 49.742 8.79795 49.7585 8.75486C49.7747 8.71173 49.803 8.67399 49.8396 8.64581C49.8763 8.61763 49.9201 8.60011 49.9664 8.59519C50.7615 8.49801 52.1816 8.35643 52.4605 8.35643C55.4791 8.35643 57.9205 8.95883 57.9205 13.0343C57.9205 18.5866 51.8607 21.0658 49.746 21.0658C49.3163 21.0658 47.8933 21.0075 47.2012 20.9631C47.1559 20.9591 47.1118 20.9452 47.0727 20.9223C47.0332 20.8994 46.9994 20.8681 46.9732 20.8308C46.9474 20.7933 46.9302 20.7507 46.923 20.7059C46.9154 20.6611 46.9183 20.6153 46.9309 20.5716H46.9223ZM18.5368 44.1915C18.0485 46.0957 15.3729 52.4921 9.76224 52.4921C7.98223 52.4921 6.97222 51.6592 6.97222 50.1962C6.97222 47.2062 14.363 44.8439 18.1908 43.8693C18.2367 43.8572 18.2848 43.8569 18.3308 43.8683C18.3768 43.8797 18.4191 43.9025 18.4537 43.9346C18.4883 43.9671 18.5141 44.0074 18.5287 44.0523C18.5432 44.0973 18.546 44.1451 18.5368 44.1915Z" fill="white"/>
<path d="M67.8454 42.5951C59.9749 42.5951 32.3009 47.0371 20.4154 58.8857C19.2604 60.0351 18.5601 60.6707 18.5601 60.8013C18.5601 61.0289 18.5601 61.1234 20.1002 61.1234C20.6582 61.1234 20.8312 60.9429 21.2859 60.4902C28.5232 53.289 45.1683 50.0992 54.8775 50.0992C59.9947 50.0992 62.4637 50.3767 63.3593 50.3767C64.255 50.3767 68.1972 43.1002 68.1972 42.9893C68.1972 42.8784 68.2751 42.5951 67.8454 42.5951Z" fill="white"/>
</g>
<defs>
<clipPath id="clip0_18893_31817">
<rect width="70" height="61" fill="white"/>
</clipPath>
</defs>
</svg>
