<svg width="99" height="31" viewBox="0 0 99 31" fill="none" xmlns="http://www.w3.org/2000/svg">
<g clip-path="url(#clip0_3_1289)">
<mask id="mask0_3_1289" style="mask-type:alpha" maskUnits="userSpaceOnUse" x="0" y="0" width="12" height="16">
<path fill-rule="evenodd" clip-rule="evenodd" d="M0.5 0H11.2818V15.7477H0.5V0Z" fill="white"/>
</mask>
<g mask="url(#mask0_3_1289)">
<path fill-rule="evenodd" clip-rule="evenodd" d="M10.3296 4.42205L10.1019 4.48397C8.48778 1.79753 7.01854 0.474757 5.48711 0.474757C4.2661 0.474757 3.33484 1.28073 3.33484 2.47946C3.33484 4.15332 5.19755 4.87673 7.12189 5.82738C9.14996 6.86079 11.2816 8.14209 11.2816 11.1179C11.2816 14.5279 8.57065 15.7473 5.54912 15.7473C3.83147 15.7473 2.15535 15.3339 1.03788 14.8175L0.499714 10.6013L0.706787 10.5394C2.71419 13.846 4.2661 15.272 6.12862 15.272C7.76359 15.272 8.67418 14.1973 8.67418 12.8747C8.67418 11.056 6.91501 10.2087 5.05248 9.29934C2.94174 8.24529 0.810324 7.08804 0.810324 4.31865C0.810324 1.15688 3.56239 -0.00056839 6.50124 -0.00056839C7.66005 -0.00056839 8.7982 0.185396 9.7708 0.495588L10.3296 4.42205Z" fill="#3F3C43"/>
</g>
<path fill-rule="evenodd" clip-rule="evenodd" d="M18.2763 3.12035L16.0414 9.2583H20.4286L18.2763 3.12035ZM16.2884 15.4378H12.4807V15.3963C13.3498 14.5493 14.0741 13.2265 14.695 11.5318L18.7718 0.248003H20.8619L25.0007 11.6352C25.58 13.2471 26.201 14.5078 26.9252 15.3963V15.4378H20.7585V15.3963C21.5034 14.4459 21.7518 13.0405 21.131 11.2631L20.593 9.73388H15.8747L15.502 10.7466C14.6535 13.0818 15.1916 14.5903 16.2884 15.3963V15.4378Z" fill="#3F3C43"/>
<path fill-rule="evenodd" clip-rule="evenodd" d="M34.2513 15.4377H28.8913V15.3962C29.4915 13.9289 29.7192 13.0817 29.7192 11.0772V4.67049C29.7192 2.64515 29.4915 1.81853 28.8913 0.351082V0.309799H39.8387L40.6044 4.29856L40.3769 4.36049C39.2592 3.24451 37.3347 0.950448 36.2792 0.888523L33.4236 0.681727V7.37776H34.7893C35.8861 7.37776 36.9207 6.09647 37.7484 5.31095H37.9764V10.0025H37.7484C36.9416 9.25842 35.9068 7.85309 34.7893 7.85309H33.4236V11.0772C33.4236 13.061 33.6512 13.9289 34.2513 15.3962V15.4377Z" fill="#3F3C43"/>
<path fill-rule="evenodd" clip-rule="evenodd" d="M45.75 3.12035L43.5151 9.2583H47.9023L45.75 3.12035ZM43.7633 15.4378H39.9556V15.3963C40.8248 14.5493 41.5492 13.2265 42.1698 11.5318L46.2466 0.248003H48.3369L52.4757 11.6352C53.055 13.2471 53.6759 14.5078 54.4002 15.3963V15.4378H48.2334V15.3963C48.9782 14.4459 49.2266 13.0405 48.606 11.2631L48.0678 9.73388H43.3495L42.9771 10.7466C42.1285 13.0818 42.6665 14.5903 43.7633 15.3963V15.4378Z" fill="#3F3C43"/>
<path fill-rule="evenodd" clip-rule="evenodd" d="M61.2771 0.785054V7.95623H62.4152C64.7122 7.95623 65.3332 5.97236 65.3332 4.09169C65.3332 2.27296 64.6502 0.764602 62.3324 0.764602C62.0841 0.764602 61.691 0.764602 61.2771 0.785054ZM56.7441 15.3962C57.3441 13.9289 57.5718 13.0817 57.5718 11.0772V4.67049C57.5718 2.64515 57.3441 1.81853 56.7441 0.351082V0.309799H63.2212C67.6498 0.309799 69.119 1.79789 69.119 4.02984C69.119 5.66242 68.3328 7.10923 66.3461 7.87392L68.6844 12.627C69.3881 14.0736 69.8434 14.7555 70.9402 15.3551V15.4377H65.9943L62.6417 8.43181H61.276V11.0772C61.276 13.061 61.5036 13.9289 62.1037 15.3962V15.4377H56.7441V15.3962Z" fill="#3F3C43"/>
<path fill-rule="evenodd" clip-rule="evenodd" d="M72.7411 15.3962C73.3411 13.9289 73.5688 13.1023 73.5688 11.077V4.6703C73.5688 2.64515 73.3411 1.81853 72.7411 0.351082V0.309799H78.1214V0.351082C77.5214 1.81853 77.273 2.68643 77.273 4.6703V11.077C77.273 13.061 77.5214 13.9289 78.1214 15.3962V15.4377H72.7411V15.3962Z" fill="#3F3C43"/>
<mask id="mask1_3_1289" style="mask-type:alpha" maskUnits="userSpaceOnUse" x="58" y="17" width="10" height="14">
<path fill-rule="evenodd" clip-rule="evenodd" d="M58.6127 17.7235H67.7816V30.4059H58.6127V17.7235Z" fill="white"/>
</mask>
<g mask="url(#mask1_3_1289)">
<path fill-rule="evenodd" clip-rule="evenodd" d="M66.2573 21.3282C66.2573 20.522 65.9374 20.1189 65.2982 20.1189C65.0099 20.1189 64.7689 20.1452 64.5749 20.1973L63.2566 24.0767C63.0994 24.5322 63.0207 24.9248 63.0207 25.2546C63.0207 25.7991 63.272 26.0714 63.7751 26.0714C64.1731 26.0714 64.5683 25.8436 64.9612 25.388C65.3537 24.9327 65.6683 24.3398 65.9038 23.6096C66.1394 22.879 66.2573 22.1188 66.2573 21.3282ZM67.7816 21.5479C67.7816 22.2967 67.5776 23.0676 67.1689 23.8605C66.7605 24.6538 66.2394 25.3043 65.6056 25.812C64.9721 26.3197 64.3564 26.5737 63.7594 26.5737C63.262 26.5737 62.8851 26.3487 62.6283 25.8985L61.6356 28.8253C61.5725 29.0141 61.541 29.1978 61.541 29.3762C61.541 29.5283 61.6024 29.6487 61.7257 29.7379C61.8491 29.8271 62.1074 29.9059 62.5005 29.974C62.5528 29.974 62.579 30.0151 62.579 30.0975C62.579 30.3032 62.5162 30.406 62.3905 30.406C61.2095 30.3117 59.9765 30.2645 58.6914 30.2645C58.6391 30.2645 58.6127 30.2132 58.6127 30.1104C58.6127 30.0434 58.634 29.9805 58.6757 29.9214C58.7178 29.8623 58.7599 29.8328 58.8016 29.8328C59.5461 29.7803 60.0283 29.4447 60.2485 28.8268L62.9784 20.7628C62.6768 20.904 62.3442 21.0796 61.9802 21.2888L61.9413 21.2966C61.8893 21.2966 61.8413 21.2689 61.797 21.214C61.7528 21.1591 61.7308 21.1004 61.7308 21.0375C61.7308 20.9957 61.7871 20.9379 61.8998 20.8648C62.0124 20.7915 62.1237 20.7207 62.2339 20.6527C62.5691 20.4484 62.894 20.2757 63.2084 20.1344L63.9288 17.9905C63.9549 17.9172 64.052 17.8544 64.2204 17.8021C64.3884 17.7496 64.5542 17.7235 64.7172 17.7235C64.8695 17.7235 65.0102 17.7459 65.1388 17.7902C65.2675 17.8349 65.332 17.9015 65.332 17.9905L64.8141 19.4905C65.1595 19.3752 65.4996 19.3177 65.8345 19.3177C66.4364 19.3177 66.9114 19.5154 67.2596 19.9106C67.6075 20.306 67.7816 20.8516 67.7816 21.5479Z" fill="#3F3C43"/>
</g>
<path fill-rule="evenodd" clip-rule="evenodd" d="M73.0411 20.7155C73.0411 20.3752 72.9979 20.1434 72.9114 20.0205C72.8248 19.8976 72.6689 19.8359 72.4436 19.8359C72.0922 19.8359 71.6978 20.1239 71.26 20.6998C70.8223 21.2757 70.4645 21.9758 70.1867 22.8005C69.9089 23.6249 69.7701 24.417 69.7701 25.176C69.7701 25.5214 69.8144 25.757 69.9037 25.8828C69.9927 26.0083 70.1527 26.0712 70.3833 26.0712C70.7294 26.0712 71.1196 25.7847 71.555 25.2113C71.99 24.638 72.3465 23.9379 72.6245 23.1105C72.9023 22.2835 73.0411 21.485 73.0411 20.7155ZM74.3309 21.7365C74.3309 22.4852 74.1343 23.2389 73.7412 23.9979C73.3479 24.7571 72.8395 25.3762 72.2156 25.8553C71.5916 26.3342 70.9757 26.5738 70.3677 26.5738C69.8538 26.5738 69.4135 26.3448 69.0468 25.8868C68.6796 25.4287 68.4961 24.8568 68.4961 24.1708C68.4961 23.4223 68.6916 22.6684 69.082 21.9092C69.4725 21.1502 69.9786 20.5284 70.5998 20.044C71.2208 19.5598 71.8356 19.3176 72.4438 19.3176C72.9575 19.3176 73.4004 19.5481 73.7727 20.0088C74.1447 20.4696 74.3309 21.0452 74.3309 21.7365Z" fill="#3F3C43"/>
<path fill-rule="evenodd" clip-rule="evenodd" d="M81.3293 20.1972C81.3293 20.4591 81.2559 20.6684 81.109 20.8254C80.962 20.9826 80.7838 21.0612 80.574 21.0612C80.385 21.0612 80.2041 20.9644 80.0308 20.7705C79.884 20.6084 79.745 20.5271 79.6138 20.5271C79.2886 20.5271 78.802 21.0585 78.1542 22.1213C77.5063 23.184 76.8399 24.5164 76.155 26.1185C76.0816 26.2964 75.8457 26.3854 75.4475 26.3854C75.3111 26.3854 75.1865 26.3632 75.0739 26.3185C74.9613 26.274 74.9049 26.2206 74.9049 26.1577L74.9127 26.1185L76.5642 21.281C76.7005 20.8725 76.7686 20.6161 76.7686 20.5114C76.7686 20.3857 76.7161 20.323 76.6112 20.323C76.4434 20.323 76.1445 20.6055 75.715 21.1712C75.5051 21.4433 75.3794 21.5795 75.3373 21.5795C75.2639 21.5795 75.2011 21.5494 75.1486 21.4889C75.0963 21.4289 75.0701 21.37 75.0701 21.3125C75.0701 21.2392 75.2429 21.0023 75.5887 20.6017C75.9344 20.2012 76.2686 19.887 76.5907 19.6594C76.9127 19.4316 77.192 19.3176 77.4276 19.3176C77.9725 19.3176 78.2449 19.5534 78.2449 20.0245C78.2449 20.2864 78.1612 20.6582 77.9934 21.1397L77.6963 21.9878C78.6924 20.2078 79.5679 19.3176 80.3226 19.3176C80.6163 19.3176 80.8575 19.3975 81.0464 19.5572C81.2349 19.717 81.3293 19.9302 81.3293 20.1972Z" fill="#3F3C43"/>
<path fill-rule="evenodd" clip-rule="evenodd" d="M86.205 19.9301C86.205 20.035 86.1698 20.1344 86.099 20.2285C86.0281 20.3228 85.9587 20.3698 85.8906 20.3698L84.3025 20.3228L82.8224 24.6106C82.7172 24.9456 82.6649 25.1812 82.6649 25.3172C82.6649 25.485 82.7225 25.5685 82.838 25.5685C83.0843 25.5685 83.5777 25.2363 84.3173 24.5712C84.5955 24.3148 84.7529 24.1866 84.7895 24.1866C84.8628 24.1866 84.9284 24.2167 84.9861 24.2768C85.0439 24.337 85.0728 24.3959 85.0728 24.4534C85.0728 24.5371 84.8422 24.7871 84.3808 25.2035C83.9194 25.6196 83.4831 25.9521 83.0716 26.2006C82.6599 26.4494 82.3309 26.5737 82.0846 26.5737C81.5079 26.5737 81.2197 26.2805 81.2197 25.6942C81.2197 25.4168 81.2825 25.0973 81.4084 24.7362L82.9182 20.3386L81.7072 20.3698C81.6024 20.3698 81.5499 20.2863 81.5499 20.1187C81.5499 20.0193 81.5855 19.921 81.6562 19.824C81.727 19.7275 81.7962 19.679 81.8644 19.679H83.1384L83.7201 17.9905C83.7463 17.9119 83.8417 17.8479 84.0065 17.7981C84.1711 17.7483 84.3372 17.7235 84.5046 17.7235C84.651 17.7235 84.7883 17.7459 84.9165 17.7902C85.0445 17.8349 85.1088 17.8885 85.1088 17.9513L85.1008 17.9905L84.5198 19.679H86.0319C86.1472 19.679 86.205 19.7627 86.205 19.9301Z" fill="#3F3C43"/>
<path fill-rule="evenodd" clip-rule="evenodd" d="M91.1338 20.6999C91.1338 20.3858 91.0185 20.2288 90.7879 20.2288C90.3423 20.2288 89.8313 20.4761 89.2546 20.9709C88.6779 21.4656 88.1735 22.0742 87.7408 22.7967C87.3084 23.5191 87.0925 24.1187 87.0925 24.5949C87.0925 24.8777 87.1368 25.0792 87.2261 25.1996C87.3151 25.3201 87.4645 25.3803 87.6742 25.3803C87.9416 25.3803 88.3542 25.0752 88.9125 24.4654C89.4708 23.8554 89.9805 23.1631 90.442 22.3882C90.903 21.6135 91.1338 21.0508 91.1338 20.6999ZM93.0849 19.4591L90.8519 24.6106C90.6945 24.9666 90.616 25.2232 90.616 25.3802C90.616 25.5058 90.6681 25.5686 90.7732 25.5686C90.9251 25.5686 91.2658 25.252 91.7953 24.6184C92.0365 24.3305 92.173 24.1866 92.2043 24.1866C92.2672 24.1866 92.3247 24.2167 92.3774 24.2769C92.4296 24.3372 92.4559 24.3961 92.4559 24.4534C92.4559 24.5269 92.2644 24.7782 91.8817 25.2075C91.4993 25.6366 91.1361 25.9718 90.7927 26.2125C90.4493 26.4534 90.1597 26.5738 89.9238 26.5738C89.3997 26.5738 89.1374 26.3277 89.1374 25.8357C89.1374 25.3749 89.3576 24.7362 89.7977 23.9196C89.4152 24.6316 88.9051 25.252 88.2684 25.7807C87.6314 26.3095 87.0771 26.5738 86.6055 26.5738C86.3382 26.5738 86.1271 26.4718 85.9724 26.2674C85.8178 26.0633 85.7404 25.7834 85.7404 25.4274C85.7404 24.7417 86.0289 23.9548 86.6063 23.0676C87.1833 22.18 87.8918 21.4041 88.7314 20.7391C89.5711 20.0742 90.2741 19.7416 90.8409 19.7416C91.1189 19.7416 91.3445 19.7994 91.5176 19.9147L91.701 19.4591C91.7795 19.2813 92.0522 19.1921 92.5189 19.1921C92.9014 19.1921 93.0929 19.2656 93.0929 19.4119L93.0849 19.4591Z" fill="#3F3C43"/>
<mask id="mask2_3_1289" style="mask-type:alpha" maskUnits="userSpaceOnUse" x="93" y="14" width="6" height="13">
<path fill-rule="evenodd" clip-rule="evenodd" d="M93.1956 14.8494H98.4999V26.5737H93.1956V14.8494Z" fill="white"/>
</mask>
<g mask="url(#mask2_3_1289)">
<path fill-rule="evenodd" clip-rule="evenodd" d="M98.5 15.0221C98.5 15.1215 98.4685 15.2577 98.4056 15.4304L94.9796 24.2807C94.7803 24.8096 94.6807 25.113 94.6807 25.1916C94.6807 25.3486 94.7384 25.4272 94.8537 25.4272C95.0786 25.4272 95.4311 25.1183 95.9114 24.5006C96.1149 24.2389 96.2374 24.108 96.2793 24.108C96.347 24.108 96.4071 24.1406 96.4592 24.2061C96.5116 24.2716 96.5377 24.3303 96.5377 24.3828C96.5377 24.4665 96.353 24.7271 95.9835 25.1642C95.6137 25.6012 95.2561 25.9455 94.91 26.1968C94.5641 26.4481 94.2704 26.5737 94.0293 26.5737C93.4736 26.5737 93.1956 26.2962 93.1956 25.7414C93.1956 25.4796 93.2691 25.1445 93.4159 24.7362L96.2781 17.2679C96.3934 16.9645 96.4511 16.7289 96.4511 16.5613C96.4511 16.3572 96.2311 16.2288 95.7908 16.1765C95.7068 16.1661 95.6649 16.1006 95.6649 15.9801C95.6649 15.8546 95.7068 15.7915 95.7908 15.7915C96.1261 15.7288 96.5302 15.611 97.0029 15.4383C97.4756 15.2654 97.8329 15.1058 98.0745 14.9592C98.1953 14.8859 98.2846 14.8494 98.3426 14.8494C98.4475 14.8494 98.5 14.9072 98.5 15.0221Z" fill="#3F3C43"/>
</g>
</g>
<defs>
<clipPath id="clip0_3_1289">
<rect width="98" height="30.4059" fill="white" transform="translate(0.5)"/>
</clipPath>
</defs>
</svg>
