<svg width="64" height="64" viewBox="0 0 64 64" fill="none" xmlns="http://www.w3.org/2000/svg">
<circle cx="32" cy="32" r="32" fill="url(#paint0_linear_1_2379)"/>
<g clip-path="url(#clip0_1_2379)">
<path d="M42 20H22C21.4696 20 20.9609 20.2107 20.5858 20.5858C20.2107 20.9609 20 21.4696 20 22V42C20 42.5304 20.2107 43.0391 20.5858 43.4142C20.9609 43.7893 21.4696 44 22 44H42C42.5304 44 43.0391 43.7893 43.4142 43.4142C43.7893 43.0391 44 42.5304 44 42V22C44 21.4696 43.7893 20.9609 43.4142 20.5858C43.0391 20.2107 42.5304 20 42 20ZM30.7075 34.7075L26.7075 38.7075C26.6146 38.8005 26.5043 38.8742 26.3829 38.9246C26.2615 38.9749 26.1314 39.0008 26 39.0008C25.8686 39.0008 25.7385 38.9749 25.6171 38.9246C25.4957 38.8742 25.3854 38.8005 25.2925 38.7075L23.2925 36.7075C23.1049 36.5199 22.9994 36.2654 22.9994 36C22.9994 35.7346 23.1049 35.4801 23.2925 35.2925C23.4801 35.1049 23.7346 34.9994 24 34.9994C24.2654 34.9994 24.5199 35.1049 24.7075 35.2925L26 36.5863L29.2925 33.2925C29.4801 33.1049 29.7346 32.9994 30 32.9994C30.2654 32.9994 30.5199 33.1049 30.7075 33.2925C30.8951 33.4801 31.0006 33.7346 31.0006 34C31.0006 34.2654 30.8951 34.5199 30.7075 34.7075ZM30.7075 26.7075L26.7075 30.7075C26.6146 30.8005 26.5043 30.8742 26.3829 30.9246C26.2615 30.9749 26.1314 31.0008 26 31.0008C25.8686 31.0008 25.7385 30.9749 25.6171 30.9246C25.4957 30.8742 25.3854 30.8005 25.2925 30.7075L23.2925 28.7075C23.1996 28.6146 23.1259 28.5043 23.0756 28.3829C23.0253 28.2615 22.9994 28.1314 22.9994 28C22.9994 27.7346 23.1049 27.4801 23.2925 27.2925C23.4801 27.1049 23.7346 26.9994 24 26.9994C24.2654 26.9994 24.5199 27.1049 24.7075 27.2925L26 28.5863L29.2925 25.2925C29.4801 25.1049 29.7346 24.9994 30 24.9994C30.2654 24.9994 30.5199 25.1049 30.7075 25.2925C30.8951 25.4801 31.0006 25.7346 31.0006 26C31.0006 26.2654 30.8951 26.5199 30.7075 26.7075ZM40 37H34C33.7348 37 33.4804 36.8946 33.2929 36.7071C33.1054 36.5196 33 36.2652 33 36C33 35.7348 33.1054 35.4804 33.2929 35.2929C33.4804 35.1054 33.7348 35 34 35H40C40.2652 35 40.5196 35.1054 40.7071 35.2929C40.8946 35.4804 41 35.7348 41 36C41 36.2652 40.8946 36.5196 40.7071 36.7071C40.5196 36.8946 40.2652 37 40 37ZM40 29H34C33.7348 29 33.4804 28.8946 33.2929 28.7071C33.1054 28.5196 33 28.2652 33 28C33 27.7348 33.1054 27.4804 33.2929 27.2929C33.4804 27.1054 33.7348 27 34 27H40C40.2652 27 40.5196 27.1054 40.7071 27.2929C40.8946 27.4804 41 27.7348 41 28C41 28.2652 40.8946 28.5196 40.7071 28.7071C40.5196 28.8946 40.2652 29 40 29Z" fill="#00841C"/>
</g>
<defs>
<linearGradient id="paint0_linear_1_2379" x1="32" y1="0" x2="32" y2="64" gradientUnits="userSpaceOnUse">
<stop stop-color="#E5F3E8"/>
<stop offset="1" stop-color="#F6FBF7"/>
</linearGradient>
<clipPath id="clip0_1_2379">
<rect width="32" height="32" fill="white" transform="translate(16 16)"/>
</clipPath>
</defs>
</svg>
