<svg width="16" height="16" viewBox="0 0 16 16" fill="none" xmlns="http://www.w3.org/2000/svg">
<mask id="mask0_1_4020" style="mask-type:alpha" maskUnits="userSpaceOnUse" x="0" y="0" width="16" height="16">
<rect y="3.05176e-05" width="16" height="16" fill="#D9D9D9"/>
</mask>
<g mask="url(#mask0_1_4020)">
<path d="M8.00016 8.66674C8.18905 8.66674 8.3475 8.60274 8.4755 8.47474C8.60305 8.34718 8.66683 8.18896 8.66683 8.00007V5.31674C8.66683 5.12785 8.60305 4.97229 8.4755 4.85007C8.3475 4.72785 8.18905 4.66674 8.00016 4.66674C7.81127 4.66674 7.65305 4.73052 7.5255 4.85807C7.3975 4.98607 7.3335 5.14452 7.3335 5.3334V8.01674C7.3335 8.20563 7.3975 8.36118 7.5255 8.48341C7.65305 8.60563 7.81127 8.66674 8.00016 8.66674ZM8.00016 11.3334C8.18905 11.3334 8.3475 11.2694 8.4755 11.1414C8.60305 11.0138 8.66683 10.8556 8.66683 10.6667C8.66683 10.4778 8.60305 10.3194 8.4755 10.1914C8.3475 10.0638 8.18905 10.0001 8.00016 10.0001C7.81127 10.0001 7.65305 10.0638 7.5255 10.1914C7.3975 10.3194 7.3335 10.4778 7.3335 10.6667C7.3335 10.8556 7.3975 11.0138 7.5255 11.1414C7.65305 11.2694 7.81127 11.3334 8.00016 11.3334ZM8.00016 14.6667C7.07794 14.6667 6.21127 14.4916 5.40016 14.1414C4.58905 13.7916 3.8835 13.3167 3.2835 12.7167C2.6835 12.1167 2.20861 11.4112 1.85883 10.6001C1.50861 9.78896 1.3335 8.92229 1.3335 8.00007C1.3335 7.07785 1.50861 6.21118 1.85883 5.40007C2.20861 4.58896 2.6835 3.8834 3.2835 3.2834C3.8835 2.6834 4.58905 2.20829 5.40016 1.85807C6.21127 1.50829 7.07794 1.3334 8.00016 1.3334C8.92239 1.3334 9.78905 1.50829 10.6002 1.85807C11.4113 2.20829 12.1168 2.6834 12.7168 3.2834C13.3168 3.8834 13.7917 4.58896 14.1415 5.40007C14.4917 6.21118 14.6668 7.07785 14.6668 8.00007C14.6668 8.92229 14.4917 9.78896 14.1415 10.6001C13.7917 11.4112 13.3168 12.1167 12.7168 12.7167C12.1168 13.3167 11.4113 13.7916 10.6002 14.1414C9.78905 14.4916 8.92239 14.6667 8.00016 14.6667Z" fill="#00841C"/>
</g>
</svg>
